<svg width="28" height="28" viewBox="0 0 28 28" fill="none" xmlns="http://www.w3.org/2000/svg">
<path d="M2.625 14.8867C2.625 16.7533 3.93517 18.3797 5.78317 18.6515C7.05133 18.8382 8.33233 18.9817 9.625 19.082V24.5L14.3803 19.7447C14.7028 19.4242 15.1357 19.2393 15.5902 19.2278C17.8085 19.1664 20.0212 18.974 22.2168 18.6515C24.0648 18.3797 25.375 16.7545 25.375 14.8855V7.8645C25.375 5.9955 24.0648 4.37034 22.2168 4.0985C19.4961 3.69917 16.7499 3.49914 14 3.5C11.2093 3.5 8.46533 3.70417 5.78317 4.0985C3.93517 4.37034 2.625 5.99667 2.625 7.8645V14.8855V14.8867Z" stroke="#797F8B" stroke-width="1.75" stroke-linecap="round" stroke-linejoin="round"/>
</svg>
